<svg width="18" height="18" viewBox="0 0 18 18" fill="none" xmlns="http://www.w3.org/2000/svg">
<g clip-path="url(#clip0_254_442)">
<path d="M2.07342 8.1015C2.21849 7.95647 2.41523 7.875 2.62036 7.875C2.82549 7.875 3.02222 7.95647 3.16729 8.1015L6.99659 11.9308L10.8259 8.1015C10.9718 7.96058 11.1672 7.88261 11.37 7.88437C11.5729 7.88613 11.7669 7.96749 11.9103 8.11092C12.0538 8.25435 12.1351 8.44838 12.1369 8.65122C12.1387 8.85405 12.0607 9.04946 11.9198 9.19536L7.54353 13.5716C7.39846 13.7166 7.20172 13.7981 6.99659 13.7981C6.79146 13.7981 6.59473 13.7166 6.44966 13.5716L2.07342 9.19536C1.9284 9.05029 1.84692 8.85356 1.84692 8.64843C1.84692 8.4433 1.9284 8.24657 2.07342 8.1015Z" fill="#484848"/>
</g>
<defs>
<clipPath id="clip0_254_442">
<rect width="18" height="18" fill="white"/>
</clipPath>
</defs>
</svg>
